# xmcd
#
# Track frame offsets:
#	150
#	18042
#	39076
#	56813
#	78516
#	95272
#	111945
#	131568
#	151328
#	171947
#	191198
#
# Disc length: 2991 seconds
# Revision: 0
# Processed by: cddbd v1.5.2PL0 Copyright (c) Steve Scherf et al.
# Submitted via: dBpowerAMP V12.0
#
DISCID=860bad0b
DTITLE=Turley - Anger Management
DYEAR=2010
DGENRE=Country
TTITLE0=Another Whiskey
TTITLE1=Flyin' Helmets
TTITLE2=With The Devil
TTITLE3=I'll Breathe For You
TTITLE4=909
TTITLE5=Shinin'
TTITLE6=Wings
TTITLE7=Only God Knows
TTITLE8=Heaven Or Hell
TTITLE9=Final Drive
TTITLE10=Anger Management
EXTD=
EXTT0=
EXTT1=
EXTT2=
EXTT3=
EXTT4=
EXTT5=
EXTT6=
EXTT7=
EXTT8=
EXTT9=
EXTT10=
PLAYORDER=
